<svg xmlns="http://www.w3.org/2000/svg" aria-hidden="true" style="position:absolute;width:0;height:0;overflow:hidden">
  <defs>
    <symbol id="icon-sound" viewBox="0 0 32 32">
    <path d="M24.48 25.813c-0.364-0.002-0.694-0.149-0.933-0.387l0 0c-0.24-0.241-0.388-0.573-0.388-0.94s0.148-0.699 0.388-0.94l-0 0c1.933-1.931 3.128-4.599 3.128-7.547s-1.196-5.616-3.128-7.547l-0-0c-0.199-0.232-0.321-0.535-0.321-0.867 0-0.736 0.597-1.333 1.333-1.333 0.332 0 0.636 0.121 0.869 0.322l-0.002-0.001c2.412 2.413 3.904 5.745 3.904 9.427s-1.492 7.014-3.904 9.427l0-0c-0.241 0.239-0.573 0.387-0.939 0.387-0.003 0-0.005 0-0.008-0h0z"></path>
    <path d="M20.72 22.053c-0.371-0.002-0.706-0.154-0.946-0.4l-0-0c-0.24-0.241-0.388-0.573-0.388-0.94s0.148-0.699 0.388-0.94l-0 0c0.966-0.965 1.564-2.3 1.564-3.773s-0.598-2.808-1.564-3.773l-0-0c-0.199-0.232-0.321-0.535-0.321-0.867 0-0.736 0.597-1.333 1.333-1.333 0.332 0 0.636 0.121 0.869 0.322l-0.002-0.001c1.446 1.447 2.34 3.446 2.34 5.653s-0.894 4.206-2.34 5.653l0-0c-0.238 0.243-0.567 0.395-0.932 0.4h-0.001zM15.173 5.44c-0.153-0.066-0.33-0.104-0.517-0.104-0.365 0-0.696 0.147-0.937 0.384l0-0-4.933 4.947h-3.453c-1.473 0-2.667 1.194-2.667 2.667v0 5.333c0 1.473 1.194 2.667 2.667 2.667v0h3.453l4.933 4.947c0.241 0.239 0.573 0.387 0.939 0.387 0.003 0 0.005 0 0.008-0h-0c0.009 0 0.019 0 0.029 0 0.174 0 0.338-0.039 0.485-0.11l-0.007 0.003c0.487-0.204 0.824-0.676 0.827-1.226v-18.667c-0.003-0.551-0.339-1.023-0.818-1.223l-0.009-0.003z"></path>
    </symbol>

<symbol id="icon-home-1" viewBox="0 0 32 32">
<path fill="#1c274c" style="fill: var(--color1, #1c274c)" d="M24.667 4h-3.333c-0.368 0-0.667 0.298-0.667 0.667v0.079l4.667 3.733v-3.812c0-0.368-0.298-0.667-0.667-0.667z"></path>
<path fill="#1c274c" style="fill: var(--color1, #1c274c)" d="M27.667 14.614l1.042 0.834c0.431 0.345 1.061 0.275 1.406-0.156s0.275-1.061-0.156-1.406l-10.835-8.668c-1.826-1.461-4.421-1.461-6.247 0l-10.835 8.668c-0.431 0.345-0.501 0.974-0.156 1.406s0.974 0.501 1.406 0.156l1.042-0.834v13.719h-1.667c-0.552 0-1 0.448-1 1s0.448 1 1 1h26.667c0.552 0 1-0.448 1-1s-0.448-1-1-1h-1.667v-13.719zM12.333 12.667c0-2.025 1.642-3.667 3.667-3.667s3.667 1.642 3.667 3.667c0 2.025-1.642 3.667-3.667 3.667s-3.667-1.642-3.667-3.667zM16.066 17.667c0.887 0 1.65-0 2.262 0.082 0.655 0.088 1.284 0.287 1.793 0.797s0.708 1.138 0.797 1.794c0.077 0.573 0.082 1.281 0.082 2.097 0 0.055 0 0.109 0 0.165v5.733h-2v-5.667c0-0.971-0.002-1.599-0.064-2.061-0.058-0.434-0.152-0.57-0.229-0.646s-0.212-0.17-0.646-0.229c-0.463-0.062-1.090-0.064-2.061-0.064s-1.599 0.002-2.061 0.064c-0.434 0.058-0.57 0.153-0.646 0.229s-0.17 0.212-0.229 0.646c-0.062 0.463-0.064 1.090-0.064 2.061v5.667h-2v-5.733c-0-0.886-0-1.65 0.082-2.262 0.088-0.656 0.287-1.284 0.797-1.794s1.138-0.708 1.794-0.797c0.612-0.082 1.375-0.082 2.262-0.082h0.132z"></path>
<path fill="#1c274c" style="fill: var(--color1, #1c274c)" d="M14.333 12.667c0-0.92 0.746-1.667 1.667-1.667s1.667 0.746 1.667 1.667c0 0.921-0.746 1.667-1.667 1.667s-1.667-0.746-1.667-1.667z"></path>
</symbol>
<symbol id="icon-home" viewBox="0 0 32 32">
<path d="M2 12v18h10v-8c0-2.209 1.791-4 4-4s4 1.791 4 4v0 8h10v-18l-14-12-14 12z"></path>
</symbol>

<symbol id="icon-download" viewBox="0 0 32 32">
<path d="M7.5 20c0-0.552-0.448-1-1-1s-1 0.448-1 1h2zM6.5 21.333v0zM25.7 20c0-0.552-0.448-1-1-1s-1 0.448-1 1h2zM14.811 20.718c-0.34 0.435-0.262 1.064 0.173 1.404s1.064 0.262 1.404-0.173l-1.577-1.23zM21.589 15.282c0.34-0.435 0.262-1.064-0.173-1.404s-1.064-0.262-1.404 0.173l1.577 1.23zM14.811 21.948c0.34 0.435 0.968 0.513 1.404 0.173s0.513-0.968 0.173-1.404l-1.577 1.23zM11.188 14.052c-0.34-0.435-0.968-0.513-1.404-0.173s-0.513 0.968-0.173 1.404l1.577-1.23zM14.6 21.333c0 0.552 0.448 1 1 1s1-0.448 1-1h-2zM16.6 6.667c0-0.552-0.448-1-1-1s-1 0.448-1 1h2zM5.5 20v1.333h2v-1.333h-2zM5.5 21.333c0 2.737 2.17 5 4.9 5v-2c-1.578 0-2.9-1.319-2.9-3h-2zM10.4 26.333h10.4v-2h-10.4v2zM20.8 26.333c2.73 0 4.9-2.263 4.9-5h-2c0 1.681-1.322 3-2.9 3v2zM25.7 21.333v-1.333h-2v1.333h2zM16.389 21.948l5.2-6.667-1.577-1.23-5.2 6.667 1.577 1.23zM16.389 20.718l-5.2-6.667-1.577 1.23 5.2 6.667 1.577-1.23zM16.6 21.333v-14.667h-2v14.667h2z"></path>
</symbol>
  </defs>
</svg>