<svg xmlns="http://www.w3.org/2000/svg" aria-hidden="true" style="position:absolute;width:0;height:0;overflow:hidden">
  <defs>
    <symbol id="icon-sound" viewBox="0 0 32 32">
    <path d="M24.48 25.813c-0.364-0.002-0.694-0.149-0.933-0.387l0 0c-0.24-0.241-0.388-0.573-0.388-0.94s0.148-0.699 0.388-0.94l-0 0c1.933-1.931 3.128-4.599 3.128-7.547s-1.196-5.616-3.128-7.547l-0-0c-0.199-0.232-0.321-0.535-0.321-0.867 0-0.736 0.597-1.333 1.333-1.333 0.332 0 0.636 0.121 0.869 0.322l-0.002-0.001c2.412 2.413 3.904 5.745 3.904 9.427s-1.492 7.014-3.904 9.427l0-0c-0.241 0.239-0.573 0.387-0.939 0.387-0.003 0-0.005 0-0.008-0h0z"></path>
    <path d="M20.72 22.053c-0.371-0.002-0.706-0.154-0.946-0.4l-0-0c-0.24-0.241-0.388-0.573-0.388-0.94s0.148-0.699 0.388-0.94l-0 0c0.966-0.965 1.564-2.3 1.564-3.773s-0.598-2.808-1.564-3.773l-0-0c-0.199-0.232-0.321-0.535-0.321-0.867 0-0.736 0.597-1.333 1.333-1.333 0.332 0 0.636 0.121 0.869 0.322l-0.002-0.001c1.446 1.447 2.34 3.446 2.34 5.653s-0.894 4.206-2.34 5.653l0-0c-0.238 0.243-0.567 0.395-0.932 0.4h-0.001zM15.173 5.44c-0.153-0.066-0.33-0.104-0.517-0.104-0.365 0-0.696 0.147-0.937 0.384l0-0-4.933 4.947h-3.453c-1.473 0-2.667 1.194-2.667 2.667v0 5.333c0 1.473 1.194 2.667 2.667 2.667v0h3.453l4.933 4.947c0.241 0.239 0.573 0.387 0.939 0.387 0.003 0 0.005 0 0.008-0h-0c0.009 0 0.019 0 0.029 0 0.174 0 0.338-0.039 0.485-0.11l-0.007 0.003c0.487-0.204 0.824-0.676 0.827-1.226v-18.667c-0.003-0.551-0.339-1.023-0.818-1.223l-0.009-0.003z"></path>
    </symbol>
  </defs>
</svg>